PathFileType	4	(X/Y/Z)	G:\Shared drives\HPL_Drive\Nord Sprinting Study\Kristen_Nord_test\Trimmed_Nord000006.trc
DataRate	CameraRate	NumFrames	NumMarkers	Units	OrigDataRate	OrigDataStartFrame	OrigNumFrames
200.00	200.00	      4	52	mm	200.00	511	      2043
Frame#	Time	C7			R_Shoulder			L_Shoulder			Sternum			R_humerus			R_elbow_med			R_elbow_lat			R_forearm			R_wrist_radius			R_wrist_ulna			L_humerus			L_elbow_med			L_elbow_lat			L_forearm			L_wrist_radius			L_wrist_ulna			r.ASIS			r.PSIS			r_IC			L.ASIS			L.PSIS			l_IC			r_thigh1			r_thigh2			r_thigh3			r_thigh4			r_thigh5			r_knee			r_mknee			r_shank_antsup			r_sh2			r_sh3			r_sh4			r_ankle			r_mankle			r_calc			r_5meta			r_toe			L_thigh1			L_thigh2			L_thigh3			L_thigh4			L_knee			L_mknee			L_shank_antsup			L_sh2			L_sh3			L_ankle			L_mankle			L_calc			L_5meta			L_toe			
		X1	Y1	Z1	X2	Y2	Z2	X3	Y3	Z3	X4	Y4	Z4	X5	Y5	Z5	X6	Y6	Z6	X7	Y7	Z7	X8	Y8	Z8	X9	Y9	Z9	X10	Y10	Z10	X11	Y11	Z11	X12	Y12	Z12	X13	Y13	Z13	X14	Y14	Z14	X15	Y15	Z15	X16	Y16	Z16	X17	Y17	Z17	X18	Y18	Z18	X19	Y19	Z19	X20	Y20	Z20	X21	Y21	Z21	X22	Y22	Z22	X23	Y23	Z23	X24	Y24	Z24	X25	Y25	Z25	X26	Y26	Z26	X27	Y27	Z27	X28	Y28	Z28	X29	Y29	Z29	X30	Y30	Z30	X31	Y31	Z31	X32	Y32	Z32	X33	Y33	Z33	X34	Y34	Z34	X35	Y35	Z35	X36	Y36	Z36	X37	Y37	Z37	X38	Y38	Z38	X39	Y39	Z39	X40	Y40	Z40	X41	Y41	Z41	X42	Y42	Z42	X43	Y43	Z43	X44	Y44	Z44	X45	Y45	Z45	X46	Y46	Z46	X47	Y47	Z47	X48	Y48	Z48	X49	Y49	Z49	X50	Y50	Z50	X51	Y51	Z51	X52	Y52	Z52	

511	2.550	1220.97168	431.48148	1276.89734	1336.82764	482.75644	1279.77954	1086.99341	466.79395	1292.40137	1206.50867	559.33429	1228.01099	1513.20105	459.50168	1254.33289	1642.93408	493.55756	1171.52722	1641.84607	429.49179	1217.03516	1642.67676	492.84839	1330.68127	1615.91577	577.42780	1410.79834	1657.95044	559.00500	1422.10132	889.92004	415.23645	1265.08142	772.95703	439.80243	1186.45361	777.31934	374.26361	1227.31836	807.65216	448.99490	1352.22961	847.43774	515.54022	1416.83398	798.25012	511.22931	1428.84277	1331.64319	528.23865	757.49957	1287.40527	366.60269	860.35968	1369.08862	476.91537	856.34204	1091.48584	512.04907	754.19977	1170.86035	361.59338	853.48334	1067.29211	466.17847	843.07556	1396.17847	440.33200	514.21082	1392.26038	412.02661	402.52679	1404.88354	359.10397	386.76395	1406.29773	336.88498	543.78296	1383.58557	310.40662	428.75116	1390.85632	345.29327	311.75287	1263.21375	331.18427	321.59515	1401.36646	208.08453	310.00604	1377.33618	90.89127	317.56235	1398.91846	211.10506	385.24255	1374.62207	99.67061	399.55072	1350.32642	-73.16146	368.05676	1277.35181	-49.69674	332.54263	1291.21094	-92.45048	423.00980	1358.75269	-157.02986	270.47321	1325.85364	-128.48155	219.19908	1023.54492	434.88034	516.34143	1022.66467	404.00388	379.16138	1028.16162	318.79672	550.26416	1035.80884	297.63205	414.40417	1012.29669	324.44910	326.54437	1142.12927	331.13263	307.68680	1001.42273	212.22485	305.92929	1008.08331	220.11464	396.20340	1023.19788	99.89141	397.74094	1038.92126	-80.47176	362.79013	1114.94250	-52.91167	332.58868	1092.24207	-92.71893	417.12622	1031.92163	-160.08559	253.98792	1074.26099	-132.30194	203.51456	
512	2.555	1220.91370	431.95117	1276.87781	1336.83667	483.25461	1279.71472	1086.95227	467.31378	1292.34375	1206.44458	559.78070	1228.01208	1513.05945	459.88208	1254.82751	1642.89966	493.97409	1171.39893	1641.77893	429.91943	1216.99207	1642.59534	493.41281	1330.55701	1615.81726	578.02863	1410.60889	1657.87183	559.60156	1421.88428	889.82379	415.83572	1265.06116	773.20111	440.18021	1186.09985	777.18469	374.96036	1227.37927	807.40631	449.44843	1352.35718	847.44226	516.31354	1416.73523	798.24274	511.95166	1428.76306	1331.62280	528.42700	757.39539	1287.33789	366.87076	860.33234	1369.04224	477.13843	856.25861	1091.44336	512.24615	754.09277	1170.81274	361.90518	853.38983	1067.24597	466.47928	842.99524	1396.17017	440.38858	514.17047	1392.23083	411.18625	402.40378	1404.96521	359.01453	386.70221	1406.28809	336.98239	543.80615	1383.80286	310.47180	428.78290	1390.84448	345.26767	311.70648	1263.21948	331.20877	321.60043	1401.32739	208.10501	310.00653	1377.27979	90.88511	317.59222	1398.92444	211.12254	385.28665	1374.58264	99.68776	399.55615	1350.33826	-73.12946	368.05624	1277.34229	-49.65152	332.58536	1291.16602	-92.33280	423.12643	1358.61084	-157.13974	270.59360	1325.71375	-128.60913	219.30157	1023.50671	434.99866	516.31067	1022.77747	404.81403	377.62711	1028.10071	318.94824	550.24164	1035.76587	297.72040	414.40109	1011.51050	324.33768	326.96222	1142.08752	331.14005	307.70920	1001.40979	212.25665	305.90091	1008.00055	220.17561	396.20505	1023.05164	99.92039	397.72601	1038.85229	-80.44711	362.87463	1114.85327	-52.87660	332.70712	1092.14063	-92.62940	417.25336	1031.93701	-160.13293	254.18050	1074.34949	-132.35614	203.59613	
513	2.560	1220.93286	432.45874	1276.82361	1336.83301	483.78552	1279.59741	1086.92004	467.86697	1292.29028	1206.49255	560.27954	1227.82507	1513.13757	460.48395	1254.18457	1642.89941	494.33508	1171.27905	1641.73608	430.32602	1216.88208	1642.49097	494.03568	1330.44250	1615.74280	578.60699	1410.40906	1657.73645	560.18817	1421.73083	889.71350	416.42529	1265.13757	772.84015	440.91696	1186.40320	777.10779	375.55240	1227.44336	807.34668	450.12524	1352.34387	847.36743	516.97687	1416.67664	798.16620	512.68414	1428.78052	1331.60144	528.63849	757.29181	1287.23657	367.12500	860.35596	1369.03442	477.39874	856.17706	1091.40906	512.48145	754.02063	1170.68896	361.97119	853.41107	1067.17725	466.74503	842.92841	1396.18140	440.46017	514.13452	1392.23047	411.26056	402.38541	1404.95569	359.05798	386.68744	1406.26978	337.04562	543.83850	1383.77954	310.51315	428.80716	1390.86267	345.29507	311.69684	1263.22107	331.23199	321.58664	1401.34399	208.07831	310.03375	1377.31287	90.87835	317.59726	1398.98267	211.10112	385.26038	1374.66711	99.66871	399.58051	1350.29102	-73.13818	368.14380	1277.30933	-49.69055	332.63760	1291.18140	-92.23205	423.16501	1358.50037	-157.20549	270.65311	1325.53687	-128.70140	219.47005	1023.39563	435.11435	516.23358	1022.92926	405.03925	377.64432	1028.04248	319.09085	550.26855	1035.71057	297.79092	414.44446	1012.24603	324.51202	326.52106	1142.08533	331.13275	307.70554	1001.42017	212.27130	305.84402	1007.92609	220.18930	396.23245	1023.80646	99.00445	396.60599	1038.79431	-80.41120	362.96533	1114.80615	-52.87872	332.81824	1092.08020	-92.57578	417.33145	1031.15637	-160.16257	254.73424	1074.39160	-132.39410	203.73682	
514	2.565	1220.92810	432.95023	1276.74316	1336.82886	484.25833	1279.52539	1087.01233	468.45905	1292.20459	1206.45984	560.76410	1227.75012	1513.14746	460.92462	1254.07996	1642.85425	494.71732	1171.18567	1641.71436	430.74487	1216.80249	1642.46167	494.52158	1330.29700	1615.69153	579.23993	1410.21191	1657.63904	560.76257	1421.57458	889.54150	417.10165	1265.23572	772.79779	441.50528	1186.40564	777.13953	376.10458	1227.39099	807.31830	450.78476	1352.31152	847.28351	517.67987	1416.67383	798.16296	513.43097	1428.69702	1331.55627	528.83685	757.20355	1287.19287	367.35645	860.31506	1368.97766	477.64584	856.08972	1091.33826	512.65076	753.95251	1170.57935	362.20981	853.48547	1067.12341	467.00208	842.86957	1396.15100	440.56244	514.07831	1392.19312	412.07098	402.44955	1404.97815	359.07236	386.70190	1406.19019	337.12906	543.83948	1383.76270	310.55420	428.81064	1390.83081	345.29266	311.74786	1263.20166	331.22110	321.59622	1401.37500	208.09081	310.01105	1377.26453	90.91258	317.62973	1399.02722	211.09158	385.27554	1374.64783	99.70183	399.59052	1350.28748	-73.14615	368.14243	1277.28906	-49.68657	332.80981	1291.22937	-92.14823	423.22247	1358.12842	-157.22984	270.64764	1325.42236	-128.83742	219.42958	1023.30389	435.22681	516.20477	1022.65991	404.78745	377.46600	1027.77356	319.30597	550.27588	1035.64136	297.86966	414.45865	1011.48755	324.38257	326.95874	1142.43384	330.88022	307.53409	1001.34845	212.21075	305.97278	1007.84552	220.21838	396.22208	1023.83209	99.87467	397.11230	1038.75879	-80.40185	363.01025	1114.71167	-52.87071	332.90533	1091.97290	-92.54316	417.48471	1031.18738	-160.22768	254.84624	1074.47400	-132.47827	203.90472	
